<!DOCTYPE svg PUBLIC "-//W3C//DTD SVG 1.1//EN" "http://www.w3.org/Graphics/SVG/1.1/DTD/svg11.dtd">
<!-- Uploaded to: SVG Repo, www.svgrepo.com, Transformed by: SVG Repo Mixer Tools -->
<svg fill="#ffffff" version="1.1" id="Capa_1" xmlns="http://www.w3.org/2000/svg" xmlns:xlink="http://www.w3.org/1999/xlink" width="800px" height="800px" viewBox="0 0 492.449 492.449" xml:space="preserve">
<g id="SVGRepo_bgCarrier" stroke-width="0"/>
<g id="SVGRepo_tracerCarrier" stroke-linecap="round" stroke-linejoin="round"/>
<g id="SVGRepo_iconCarrier"> <g> <path d="M492.19,255.101c-2.954-65.279-31.045-127.694-79.098-175.748c-25.675-25.675-55.349-45.636-88.195-59.328 C293.024,6.739,259.809,0.003,226.174,0.003c-61.758,0-118.927,23.158-160.978,65.208c-30.067,30.066-50.775,68.312-59.888,110.6 c-8.761,40.661-6.646,84.015,6.12,125.374l42.297,9.543c17.819-19.393,43.128-30.516,69.437-30.516 c51.983,0,94.274,42.292,94.274,94.275c0,25.455-9.997,49.316-28.15,67.186l11.031,41.955c21.707,5.852,43.898,8.816,65.957,8.818 c0.008,0,0.006,0,0.014,0c61.742,0,118.907-23.154,160.948-65.195C472.114,382.37,495.182,321.233,492.19,255.101z M323.777,77.013 c20.856,0,37.765,16.907,37.765,37.764c0,20.857-16.907,37.764-37.765,37.764c-20.856,0-37.764-16.907-37.764-37.764 C286.013,93.92,302.921,77.013,323.777,77.013z M101.7,203.304c-20.856,0-37.764-16.907-37.764-37.764s16.907-37.764,37.764-37.764 s37.764,16.907,37.764,37.764S122.556,203.304,101.7,203.304z M201.028,127.777c-20.856,0-37.764-16.907-37.764-37.764 s16.907-37.764,37.764-37.764c20.857,0,37.764,16.907,37.764,37.764S221.884,127.777,201.028,127.777z M326.112,409.29 c-29.821,0-53.996-24.175-53.996-53.997c0-29.821,24.175-53.997,53.996-53.997c29.822,0,53.997,24.176,53.997,53.997 C380.109,385.115,355.933,409.29,326.112,409.29z M396.607,266.935c-20.855,0-37.764-16.906-37.764-37.763 c0-20.857,16.907-37.764,37.764-37.764c20.857,0,37.765,16.907,37.765,37.764C434.372,250.028,417.464,266.935,396.607,266.935z"/> </g> </g>
</svg>